<svg width="44" height="47" viewBox="0 0 44 47" fill="none" xmlns="http://www.w3.org/2000/svg">
<path d="M30.9437 46V37.7177C31.024 36.6972 30.8862 35.6713 30.5395 34.7082C30.1929 33.7452 29.6453 32.8669 28.9332 32.132C35.6492 31.3829 42.7073 28.8362 42.7073 17.1511C42.7068 14.1631 41.5581 11.2897 39.4991 9.12562C40.4741 6.51147 40.4051 3.62196 39.3066 1.05734C39.3066 1.05734 36.7827 0.308296 30.9437 4.22473C26.0415 2.89533 20.8741 2.89533 15.9719 4.22473C10.1328 0.308296 7.60901 1.05734 7.60901 1.05734C6.51045 3.62196 6.44151 6.51147 7.41651 9.12562C5.34211 11.3058 4.19226 14.2051 4.20826 17.2153C4.20826 28.8148 11.2664 31.3615 17.9824 32.1962C17.2787 32.9238 16.736 33.7914 16.3896 34.7428C16.0432 35.6941 15.9009 36.7077 15.9719 37.7177V46M15.9719 39.5796C5.27767 42.7898 5.27767 34.2293 1 33.1592L15.9719 39.5796Z" stroke="#4B4B4F" stroke-width="2" stroke-linecap="round" stroke-linejoin="round"/>
</svg>
