<svg width="50" height="50" viewBox="0 0 50 50" fill="none" xmlns="http://www.w3.org/2000/svg">
<path d="M33.3333 16.6667C36.6486 16.6667 39.828 17.9836 42.1722 20.3279C44.5164 22.6721 45.8333 25.8515 45.8333 29.1667V43.75H37.5V29.1667C37.5 28.0616 37.061 27.0018 36.2796 26.2204C35.4982 25.439 34.4384 25 33.3333 25C32.2283 25 31.1685 25.439 30.3871 26.2204C29.6057 27.0018 29.1667 28.0616 29.1667 29.1667V43.75H20.8333V29.1667C20.8333 25.8515 22.1503 22.6721 24.4945 20.3279C26.8387 17.9836 30.0181 16.6667 33.3333 16.6667V16.6667Z" stroke="#4B4B4F" stroke-width="2" stroke-linecap="round" stroke-linejoin="round"/>
<path d="M12.5 18.75H4.16666V43.75H12.5V18.75Z" stroke="#4B4B4F" stroke-width="2" stroke-linecap="round" stroke-linejoin="round"/>
<path d="M8.33332 12.5C10.6345 12.5 12.5 10.6345 12.5 8.33332C12.5 6.03214 10.6345 4.16666 8.33332 4.16666C6.03214 4.16666 4.16666 6.03214 4.16666 8.33332C4.16666 10.6345 6.03214 12.5 8.33332 12.5Z" stroke="#4B4B4F" stroke-width="2" stroke-linecap="round" stroke-linejoin="round"/>
</svg>
